<!DOCTYPE svg PUBLIC "-//W3C//DTD SVG 1.1//EN" "http://www.w3.org/Graphics/SVG/1.1/DTD/svg11.dtd">
<!-- Uploaded to: SVG Repo, www.svgrepo.com, Transformed by: SVG Repo Mixer Tools -->
<svg width="800px" height="800px" viewBox="0 0 512 512" baseProfile="tiny" overflow="visible" version="1.1" xml:space="preserve" xmlns="http://www.w3.org/2000/svg" xmlns:xlink="http://www.w3.org/1999/xlink" fill="#ffffff" stroke="#ffffff">
<g id="SVGRepo_bgCarrier" stroke-width="0"/>
<g id="SVGRepo_tracerCarrier" stroke-linecap="round" stroke-linejoin="round"/>
<g id="SVGRepo_iconCarrier"> <g id="Layer_1"/> <g id="Layer_2"/> <g id="Layer_3"> <g> <path d="M430.493,368.04H37.488c0,0-31.521-76.965,30.85-142.453s142.143-89.793,222.304-59.412 S435.187,263.394,430.493,368.04z" fill="#ffffff"/> <path d="M290.642,166.175c-26.505-10.046-52.968-14.107-78.773-12.683c19.399,1.061,39.074,5.217,58.772,12.683 c80.162,30.381,144.545,97.219,139.85,201.865h20.001C435.187,263.394,370.804,196.556,290.642,166.175z" fill="#ffffff"/> <path d="M285.236,199.767c-28.39,24.259-35.005,63.633-14.774,87.944c20.231,24.31,59.646,24.352,88.036,0.092 c11.657-9.961,19.642-22.47,23.605-35.438c7.499-24.54,21.252-45.07,39.413-60.589l11.493-9.821c2.08-1.777,2.345-4.897,0.595-7 l-25.838-31.048c-1.783-2.142-4.973-2.413-7.092-0.603l-11.394,9.736c-18.162,15.519-40.452,25.789-65.588,29.135 C310.409,183.943,296.893,189.805,285.236,199.767z" fill="#ffffff"/> <path d="M433.604,174.954l-25.838-31.048c-1.783-2.142-4.973-2.413-7.092-0.603L392.837,150l20.766,24.954 c1.75,2.103,1.485,5.222-0.595,7l-11.493,9.821c-18.162,15.519-31.915,36.048-39.413,60.589 c-3.962,12.968-11.947,25.477-23.604,35.439c-11.196,9.567-24.106,15.337-36.878,17.348c18.542,3.082,39.722-2.687,56.879-17.348 c11.657-9.961,19.642-22.47,23.604-35.439c7.499-24.54,21.252-45.07,39.413-60.589l11.493-9.821 C435.089,180.177,435.354,177.058,433.604,174.954z" fill="#ffffff"/> <path d="M452.709,111.739l-41.91,35.812l19.689,23.659l41.922-35.822c1.505-1.286,3.65-1.611,5.411-0.706 c6.386,3.281,14.351,2.603,20.163-2.363c7.759-6.63,8.738-18.387,2.187-26.259c-2.033-2.443-4.553-4.225-7.293-5.322 c-1.533-0.614-2.658-1.955-2.99-3.572c-0.602-2.932-1.911-5.76-3.951-8.211c-6.551-7.872-18.152-8.88-25.911-2.25 c-5.816,4.97-7.819,12.819-5.698,19.754C454.911,108.368,454.227,110.442,452.709,111.739z" fill="#ffffff"/> <g> <path d="M500.171,106.059c-2.033-2.443-4.553-4.225-7.293-5.322c-1.533-0.614-2.658-1.955-2.99-3.572 c-0.602-2.932-1.911-5.76-3.951-8.211c-4.803-5.772-12.318-7.837-19.046-5.923c3.413,0.979,6.586,2.967,9.046,5.923 c2.04,2.451,3.349,5.279,3.951,8.211c0.332,1.617,1.457,2.958,2.99,3.572c2.74,1.097,5.26,2.879,7.293,5.322 c6.551,7.872,5.572,19.629-2.187,26.259c-2.06,1.761-4.394,2.971-6.829,3.669c5.668,1.617,11.993,0.464,16.829-3.669 C505.744,125.688,506.722,113.931,500.171,106.059z" fill="#ffffff"/> <path d="M467.821,134.681c-1.761-0.904-3.906-0.579-5.411,0.706l-36.078,30.828l4.156,4.994l41.078-35.1 C470.278,135.774,469.021,135.298,467.821,134.681z" fill="#ffffff"/> </g> <path d="M391.929,429.678H62.201c-28.856,0-52.249-23.392-52.249-52.249v-8.728h434.225v8.728 C444.178,406.285,420.785,429.678,391.929,429.678z" fill="#ffffff"/> <path d="M424.177,368.701v8.726c0,28.857-23.393,52.251-52.251,52.251h20.001 c28.857,0,52.251-23.393,52.251-52.251v-8.726H424.177z" fill="#ffffff"/> <g> <ellipse cx="29.523" cy="352.933" fill="#ffffff" rx="22.033" ry="22.18"/> <ellipse cx="73.287" cy="352.933" fill="#ffffff" rx="22.033" ry="22.18"/> <ellipse cx="117.353" cy="352.933" fill="#ffffff" rx="22.033" ry="22.18"/> <ellipse cx="161.117" cy="352.933" fill="#ffffff" rx="22.033" ry="22.18"/> <ellipse cx="205.183" cy="352.933" fill="#ffffff" rx="22.033" ry="22.18"/> <ellipse cx="248.947" cy="352.933" fill="#ffffff" rx="22.033" ry="22.18"/> <ellipse cx="293.013" cy="352.933" fill="#ffffff" rx="22.033" ry="22.18"/> <ellipse cx="336.777" cy="352.933" fill="#ffffff" rx="22.033" ry="22.18"/> <ellipse cx="380.843" cy="352.933" fill="#ffffff" rx="22.033" ry="22.18"/> <ellipse cx="424.607" cy="352.933" fill="#ffffff" rx="22.033" ry="22.18"/> </g> <path d="M29.523,330.753c-1.721,0-3.393,0.205-5,0.581c9.758,2.281,17.033,11.082,17.033,21.599 c0,10.517-7.274,19.318-17.033,21.599c1.607,0.376,3.279,0.581,5,0.581c12.168,0,22.033-9.93,22.033-22.18 C51.556,340.683,41.691,330.753,29.523,330.753z" fill="#ffffff"/> <path d="M73.287,330.753c-1.721,0-3.393,0.205-5,0.581c9.758,2.281,17.033,11.082,17.033,21.599 c0,10.517-7.274,19.318-17.033,21.599c1.607,0.376,3.279,0.581,5,0.581c12.168,0,22.033-9.93,22.033-22.18 C95.32,340.683,85.456,330.753,73.287,330.753z" fill="#ffffff"/> <path d="M117.353,330.753c-1.721,0-3.393,0.205-5,0.581c9.758,2.281,17.033,11.082,17.033,21.599 c0,10.517-7.274,19.318-17.033,21.599c1.607,0.376,3.279,0.581,5,0.581c12.168,0,22.033-9.93,22.033-22.18 C139.386,340.683,129.521,330.753,117.353,330.753z" fill="#ffffff"/> <path d="M161.117,330.753c-1.721,0-3.393,0.205-5,0.581c9.758,2.281,17.032,11.082,17.032,21.599 c0,10.517-7.274,19.318-17.032,21.599c1.607,0.376,3.279,0.581,5,0.581c12.168,0,22.033-9.93,22.033-22.18 C183.15,340.683,173.286,330.753,161.117,330.753z" fill="#ffffff"/> <path d="M205.183,330.753c-1.721,0-3.393,0.205-5,0.581c9.758,2.281,17.033,11.082,17.033,21.599 c0,10.517-7.274,19.318-17.033,21.599c1.607,0.376,3.279,0.581,5,0.581c12.168,0,22.033-9.93,22.033-22.18 C227.216,340.683,217.351,330.753,205.183,330.753z" fill="#ffffff"/> <path d="M248.947,330.753c-1.721,0-3.393,0.205-5,0.581c9.758,2.281,17.033,11.082,17.033,21.599 c0,10.517-7.274,19.318-17.033,21.599c1.607,0.376,3.279,0.581,5,0.581c12.168,0,22.033-9.93,22.033-22.18 C270.98,340.683,261.115,330.753,248.947,330.753z" fill="#ffffff"/> <path d="M293.013,330.753c-1.721,0-3.393,0.205-5,0.581c9.758,2.281,17.033,11.082,17.033,21.599 c0,10.517-7.274,19.318-17.033,21.599c1.607,0.376,3.279,0.581,5,0.581c12.168,0,22.033-9.93,22.033-22.18 C315.045,340.683,305.181,330.753,293.013,330.753z" fill="#ffffff"/> <path d="M336.777,330.753c-1.721,0-3.393,0.205-5,0.581c9.758,2.281,17.033,11.082,17.033,21.599 c0,10.517-7.274,19.318-17.033,21.599c1.607,0.376,3.279,0.581,5,0.581c12.168,0,22.033-9.93,22.033-22.18 C358.81,340.683,348.945,330.753,336.777,330.753z" fill="#ffffff"/> <path d="M380.843,330.753c-1.721,0-3.393,0.205-5,0.581c9.758,2.281,17.032,11.082,17.032,21.599 c0,10.517-7.274,19.318-17.032,21.599c1.607,0.376,3.279,0.581,5,0.581c12.168,0,22.033-9.93,22.033-22.18 C402.875,340.683,393.011,330.753,380.843,330.753z" fill="#ffffff"/> <path d="M424.607,330.753c-1.721,0-3.393,0.205-5,0.581c9.758,2.281,17.033,11.082,17.033,21.599 c0,10.517-7.274,19.318-17.033,21.599c1.607,0.376,3.279,0.581,5,0.581c12.168,0,22.033-9.93,22.033-22.18 C446.64,340.683,436.775,330.753,424.607,330.753z" fill="#ffffff"/> </g> </g> <g id="Layer_4"/> <g id="Layer_5"/> <g id="Layer_6"/> <g id="Layer_7"/> <g id="Layer_8"/> <g id="Layer_9"/> <g id="Layer_10"/> <g id="Layer_11"/> <g id="Layer_12"/> <g id="Layer_13"/> <g id="Layer_14"/> <g id="Layer_15"/> <g id="Layer_16"/> <g id="Layer_17"/> <g id="Layer_18"/> <g id="Layer_19"/> <g id="Layer_20"/> <g id="Layer_21"/> <g id="Layer_22"/> <g id="Layer_23"/> <g id="Layer_24"/> <g id="Layer_25"/> <g id="Layer_26"/> <g id="Layer_27"/> <g id="Layer_28"/> <g id="Layer_29"/> <g id="Layer_30"/> <g id="Layer_31"/> <g id="Layer_32"/> <g id="Layer_33"/> <g id="Layer_34"/> <g id="Layer_35"/> <g id="Layer_36"/> <g id="Layer_37"/> <g id="Layer_38"/> <g id="Layer_39"/> <g id="Layer_40"/> <g id="Layer_41"/> <g id="Layer_42"/> <g id="Layer_43"/> <g id="Layer_44"/> <g id="Layer_45"/> <g id="Layer_46"/> <g id="Layer_47"/> <g id="Layer_48"/> <g id="Layer_49"/> <g id="Layer_50"> <g> <g> <path d="M29.572,338.573c-4.054,0-7.39-3.233-7.493-7.309c-0.697-27.314,5.82-67.589,40.828-104.348 c32.454-34.084,68.759-56.866,107.903-67.714c40.412-11.199,81.623-9.026,122.485,6.461 c12.251,4.643,24.055,10.089,35.083,16.188c2.393,1.253,4.026,3.759,4.026,6.646c0,4.142-3.353,7.5-7.495,7.5 c-1.272,0-2.531-0.323-3.644-0.939c-10.448-5.786-21.646-10.957-33.286-15.368c-75.526-28.624-151.601-8.179-214.209,57.571 c-31.461,33.034-37.32,69.145-36.695,93.62c0.105,4.141-3.166,7.584-7.307,7.689C29.702,338.572,29.636,338.573,29.572,338.573z"/> </g> <g> <path d="M111.189,382.045H79.448c-4.143,0-7.5-3.358-7.5-7.5s3.358-7.5,7.5-7.5h31.741c4.143,0,7.5,3.358,7.5,7.5 S115.332,382.045,111.189,382.045z"/> </g> <g> <path d="M199.012,382.045h-31.731c-4.143,0-7.5-3.358-7.5-7.5s3.358-7.5,7.5-7.5h31.731c4.143,0,7.5,3.358,7.5,7.5 S203.155,382.045,199.012,382.045z"/> </g> <g> <path d="M286.836,382.045h-31.721c-4.143,0-7.5-3.358-7.5-7.5s3.358-7.5,7.5-7.5h31.721c4.143,0,7.5,3.358,7.5,7.5 S290.978,382.045,286.836,382.045z"/> </g> <g> <path d="M374.679,382.045h-31.741c-4.143,0-7.5-3.358-7.5-7.5s3.358-7.5,7.5-7.5h31.741c4.143,0,7.5,3.358,7.5,7.5 S378.822,382.045,374.679,382.045z"/> </g> <g> <path d="M418.441,382.045h-31.432c-4.143,0-7.5-3.358-7.5-7.5s3.358-7.5,7.5-7.5h31.432c4.143,0,7.5,3.358,7.5,7.5 S422.584,382.045,418.441,382.045z"/> </g> <g> <path d="M330.608,382.045h-31.432c-4.143,0-7.5-3.358-7.5-7.5s3.358-7.5,7.5-7.5h31.432c4.143,0,7.5,3.358,7.5,7.5 S334.751,382.045,330.608,382.045z"/> </g> <g> <path d="M242.774,382.045h-31.432c-4.143,0-7.5-3.358-7.5-7.5s3.358-7.5,7.5-7.5h31.432c4.143,0,7.5,3.358,7.5,7.5 S246.917,382.045,242.774,382.045z"/> </g> <g> <path d="M154.951,382.045H123.52c-4.143,0-7.5-3.358-7.5-7.5s3.358-7.5,7.5-7.5h31.431c4.143,0,7.5,3.358,7.5,7.5 S159.093,382.045,154.951,382.045z"/> </g> <g> <path d="M67.117,382.045H37.486c-3.089,0-5.863-1.895-6.987-4.773l-0.189-0.479c-1.535-3.848,0.34-8.211,4.188-9.746 c1.854-0.74,3.828-0.688,5.549-0.003h27.07c4.143,0,7.5,3.358,7.5,7.5S71.26,382.045,67.117,382.045z"/> </g> <g> <path d="M428.322,338.904c-3.646,0-6.843-2.663-7.406-6.378c-4.908-32.404-17.659-61.524-37.899-86.55 c-2.605-3.221-2.105-7.944,1.116-10.548c3.22-2.605,7.944-2.105,10.548,1.115c21.936,27.126,35.753,58.663,41.065,93.737 c0.621,4.095-2.196,7.918-6.292,8.539C429.075,338.876,428.696,338.904,428.322,338.904z"/> </g> <g> <g> <path d="M311.477,319.97c-1.952,0-3.899-0.082-5.835-0.246c-16.455-1.399-30.998-8.757-40.951-20.717 c-22.809-27.409-15.781-71.57,15.667-98.443l0,0c12.414-10.608,27.055-17.29,42.34-19.325 c22.966-3.057,44.303-12.533,61.706-27.402l11.394-9.736c2.562-2.189,5.816-3.238,9.18-2.952 c3.358,0.285,6.394,1.869,8.549,4.459l25.838,31.049c4.352,5.23,3.685,13.08-1.488,17.5l-11.494,9.821 c-17.417,14.883-30.25,34.62-37.112,57.077c-4.549,14.886-13.507,28.355-25.905,38.949 C348.318,312.862,329.697,319.97,311.477,319.97z M290.102,211.969L290.102,211.969c-25.241,21.569-31.468,56.31-13.881,77.444 c7.366,8.852,18.266,14.309,30.692,15.365c16.058,1.369,33.079-4.531,46.708-16.177c10.224-8.737,17.591-19.777,21.304-31.928 c7.698-25.192,22.122-47.357,41.714-64.098l9.618-8.219l-22.639-27.204l-9.469,8.091c-19.606,16.754-43.63,27.428-69.471,30.868 C312.267,197.761,300.311,203.246,290.102,211.969z"/> </g> <g> <path d="M431.109,183.119c-0.359,0-0.72-0.016-1.083-0.046c-3.358-0.286-6.394-1.87-8.549-4.461l-13.291-15.97 c-4.352-5.229-3.685-13.078,1.486-17.498l37.03-31.642c-2.262-9.549,0.953-19.597,8.445-26 c5.28-4.511,11.989-6.676,18.884-6.088c6.922,0.588,13.196,3.87,17.665,9.242c2.462,2.957,4.251,6.446,5.222,10.161 c3.457,1.607,6.553,3.987,9.013,6.944c9.153,10.998,7.771,27.488-3.079,36.759c-7.5,6.411-17.837,7.949-26.798,4.115 l-36.847,31.486C436.922,182.074,434.08,183.119,431.109,183.119z M421.294,154.944l10.093,12.127l36.145-30.885 c3.869-3.308,9.25-3.966,13.711-1.676c3.882,1.994,8.539,1.448,11.864-1.393c4.643-3.968,5.224-11.038,1.294-15.759 c-1.184-1.421-2.636-2.484-4.318-3.158c-3.882-1.554-6.704-4.928-7.547-9.023c-0.376-1.831-1.173-3.486-2.37-4.924 c-1.883-2.264-4.513-3.645-7.406-3.891c-2.86-0.242-5.662,0.66-7.868,2.545c-3.383,2.891-4.716,7.546-3.398,11.859 c1.448,4.734-0.09,9.906-3.918,13.176L421.294,154.944z"/> </g> </g> <g> <path d="M391.922,443.678H62.198c-32.947,0-59.751-26.804-59.751-59.751v-8.726c0-4.142,3.358-7.5,7.5-7.5h434.225 c4.143,0,7.5,3.358,7.5,7.5v8.726C451.672,416.874,424.868,443.678,391.922,443.678z M17.447,382.701v1.226 c0,24.675,20.075,44.75,44.751,44.75h329.724c24.675,0,44.75-20.075,44.75-44.75v-1.226H17.447z"/> </g> <g> <g> <path d="M29.518,382.934c-16.285,0-29.533-13.314-29.533-29.68s13.249-29.68,29.533-29.68c16.284,0,29.532,13.314,29.532,29.68 S45.802,382.934,29.518,382.934z M29.518,338.574c-8.013,0-14.533,6.585-14.533,14.68s6.52,14.68,14.533,14.68 s14.532-6.585,14.532-14.68S37.531,338.574,29.518,338.574z"/> </g> <g> <path d="M73.282,382.934c-16.285,0-29.533-13.314-29.533-29.68s13.249-29.68,29.533-29.68c16.284,0,29.532,13.314,29.532,29.68 S89.566,382.934,73.282,382.934z M73.282,338.574c-8.013,0-14.533,6.585-14.533,14.68s6.52,14.68,14.533,14.68 s14.532-6.585,14.532-14.68S81.295,338.574,73.282,338.574z"/> </g> <g> <path d="M117.348,382.934c-16.285,0-29.533-13.314-29.533-29.68s13.249-29.68,29.533-29.68s29.533,13.314,29.533,29.68 S133.632,382.934,117.348,382.934z M117.348,338.574c-8.013,0-14.533,6.585-14.533,14.68s6.52,14.68,14.533,14.68 s14.533-6.585,14.533-14.68S125.361,338.574,117.348,338.574z"/> </g> <g> <path d="M161.112,382.934c-16.285,0-29.533-13.314-29.533-29.68s13.249-29.68,29.533-29.68s29.533,13.314,29.533,29.68 S177.397,382.934,161.112,382.934z M161.112,338.574c-8.013,0-14.533,6.585-14.533,14.68s6.52,14.68,14.533,14.68 c8.013,0,14.533-6.585,14.533-14.68S169.125,338.574,161.112,338.574z"/> </g> <g> <path d="M205.177,382.934c-16.284,0-29.532-13.314-29.532-29.68s13.249-29.68,29.532-29.68c16.285,0,29.533,13.314,29.533,29.68 S221.462,382.934,205.177,382.934z M205.177,338.574c-8.013,0-14.532,6.585-14.532,14.68s6.519,14.68,14.532,14.68 c8.013,0,14.533-6.585,14.533-14.68S213.19,338.574,205.177,338.574z"/> </g> <g> <path d="M248.942,382.934c-16.285,0-29.533-13.314-29.533-29.68s13.249-29.68,29.533-29.68s29.533,13.314,29.533,29.68 S265.226,382.934,248.942,382.934z M248.942,338.574c-8.013,0-14.533,6.585-14.533,14.68s6.52,14.68,14.533,14.68 s14.533-6.585,14.533-14.68S256.955,338.574,248.942,338.574z"/> </g> <g> <path d="M293.008,382.934c-16.285,0-29.533-13.314-29.533-29.68s13.249-29.68,29.533-29.68c16.284,0,29.532,13.314,29.532,29.68 S309.292,382.934,293.008,382.934z M293.008,338.574c-8.013,0-14.533,6.585-14.533,14.68s6.52,14.68,14.533,14.68 c8.013,0,14.532-6.585,14.532-14.68S301.021,338.574,293.008,338.574z"/> </g> <g> <path d="M336.771,382.934c-16.284,0-29.532-13.314-29.532-29.68s13.249-29.68,29.532-29.68c16.285,0,29.533,13.314,29.533,29.68 S353.056,382.934,336.771,382.934z M336.771,338.574c-8.013,0-14.532,6.585-14.532,14.68s6.519,14.68,14.532,14.68 s14.533-6.585,14.533-14.68S344.784,338.574,336.771,338.574z"/> </g> <g> <path d="M380.837,382.934c-16.285,0-29.533-13.314-29.533-29.68s13.249-29.68,29.533-29.68c16.285,0,29.533,13.314,29.533,29.68 S397.122,382.934,380.837,382.934z M380.837,338.574c-8.013,0-14.533,6.585-14.533,14.68s6.52,14.68,14.533,14.68 c8.013,0,14.533-6.585,14.533-14.68S388.85,338.574,380.837,338.574z"/> </g> <g> <path d="M427.722,382.706c-1.102,0-2.162-0.243-3.121-0.685c-1.248,0.575-2.667,0.814-4.132,0.616 c-1.419-0.191-2.822-0.496-4.172-0.906c-11.409-3.342-19.66-13.162-21.028-25.03c-0.131-1.12-0.198-2.285-0.198-3.448 c0-1.164,0.067-2.329,0.2-3.464c1.721-14.94,14.331-26.218,29.33-26.218c1.718,0,3.424,0.152,5.071,0.451 c14.139,2.406,24.461,14.705,24.461,29.231c0,14.679-10.893,27.308-25.338,29.376 C428.434,382.681,428.077,382.706,427.722,382.706z M424.601,338.573c-7.376,0-13.58,5.567-14.429,12.949 c-0.068,0.58-0.101,1.141-0.101,1.732s0.032,1.152,0.099,1.716c0.678,5.886,4.747,10.737,10.369,12.373 c0.032,0.01,0.065,0.02,0.099,0.03c0.587,0.18,1.204,0.313,1.836,0.399c0.755,0.102,1.47,0.313,2.129,0.615 c0.641-0.293,1.334-0.501,2.067-0.606c7.105-1.017,12.462-7.262,12.462-14.526c0-7.188-5.072-13.268-12.059-14.457 C426.226,338.643,425.422,338.573,424.601,338.573z"/> </g> </g> </g> </g> </g>
</svg>