<!DOCTYPE svg PUBLIC "-//W3C//DTD SVG 1.1//EN" "http://www.w3.org/Graphics/SVG/1.1/DTD/svg11.dtd">
<!-- Uploaded to: SVG Repo, www.svgrepo.com, Transformed by: SVG Repo Mixer Tools -->
<svg fill="#FFF" height="800px" width="800px" version="1.1" id="Layer_1" xmlns="http://www.w3.org/2000/svg" xmlns:xlink="http://www.w3.org/1999/xlink" viewBox="0 0 512.00 512.00" xml:space="preserve" stroke="#FFF" stroke-width="0.00512">
<g id="SVGRepo_bgCarrier" stroke-width="0"/>
<g id="SVGRepo_tracerCarrier" stroke-linecap="round" stroke-linejoin="round" stroke="#CCCCCC" stroke-width="7.168000000000001"/>
<g id="SVGRepo_iconCarrier"> <g> <g> <path d="M511.947,273.58v-75.95h-0.011l0.011-5.081l-0.014-0.659c-1.354-32.455-23.104-62.628-61.248-84.96 c-61.365-35.927-144.503-55.235-234.114-54.401c-45.06,0.426-86.584,8.309-120.085,22.797 c-40.683,17.595-68.439,43.95-82.495,78.334c-0.466,1.141-0.935,2.276-1.402,3.407c-5.387,13.043-11.494,27.827-11.494,46.937 v34.417v0.962v44.976c-6.266,51.086,14.692,105.83,53.573,139.735c26.821,23.389,60.044,35.402,96.437,35.402 c15.705,0,32.001-2.238,48.626-6.764c26.723-7.274,49.029-20.098,70.601-32.498c9.209-5.294,17.908-10.294,26.975-14.92 c27.352-13.95,49.519-17.066,80.217-20.225c58.975-6.072,98.342-26.396,120.349-62.133 C507.83,306.791,512.563,290.179,511.947,273.58z M480.603,192.894v4.309c-0.013,0.275-0.032,0.551-0.05,0.825 c-0.018,0.272-0.032,0.542-0.054,0.814c-0.025,0.303-0.058,0.606-0.089,0.909c-0.027,0.27-0.052,0.539-0.084,0.81 c-0.037,0.307-0.083,0.616-0.125,0.925c-0.038,0.267-0.071,0.534-0.113,0.801c-0.049,0.312-0.107,0.626-0.162,0.939 c-0.046,0.264-0.089,0.529-0.14,0.794c-0.062,0.318-0.132,0.636-0.198,0.954c-0.055,0.261-0.108,0.522-0.167,0.784 c-0.074,0.324-0.158,0.649-0.238,0.974c-0.064,0.257-0.123,0.513-0.192,0.77c-0.088,0.33-0.184,0.661-0.279,0.993 c-0.072,0.252-0.14,0.505-0.215,0.757c-0.101,0.336-0.212,0.673-0.32,1.01c-0.079,0.249-0.155,0.496-0.238,0.745 c-0.115,0.343-0.24,0.685-0.362,1.029c-0.087,0.243-0.169,0.487-0.26,0.73c-0.128,0.347-0.267,0.695-0.404,1.043 c-0.094,0.24-0.184,0.482-0.282,0.722c-0.144,0.355-0.299,0.711-0.451,1.067c-0.1,0.233-0.194,0.466-0.298,0.699 c-0.163,0.37-0.337,0.74-0.509,1.11c-0.102,0.22-0.198,0.441-0.304,0.661c-0.175,0.369-0.362,0.738-0.545,1.106 c-0.112,0.224-0.217,0.447-0.332,0.671c-0.183,0.357-0.376,0.715-0.567,1.072c-0.125,0.235-0.245,0.47-0.374,0.706 c-0.19,0.347-0.391,0.695-0.587,1.042c-0.139,0.245-0.274,0.492-0.417,0.739c-0.141,0.243-0.293,0.487-0.437,0.73 c-0.208,0.349-0.411,0.697-0.626,1.046c-9.965,16.183-24.866,28.066-45.648,36.112c-5.469,2.118-11.345,3.969-17.646,5.563 c-2.52,0.637-5.109,1.235-7.766,1.791c-7.972,1.669-16.565,2.971-25.81,3.922c-1.716,0.177-3.408,0.354-5.086,0.534 c22.49-37.452,52.562-87.665,78.177-130.893C462.646,153.38,479.532,170.664,480.603,192.894z M420.492,126.146 c-31.133,52.542-68.901,115.483-91.557,153.16c-14.866,3.398-29.574,8.437-45.868,16.748 c-9.768,4.981-19.217,10.412-28.355,15.666c-3.655,2.101-7.273,4.179-10.879,6.214c34.848-57.191,92.031-151.29,128.023-211.835 C389.162,111.763,405.447,118.463,420.492,126.146z M340.635,97.268C293.59,176.21,215.806,303.734,193.268,340.639 c-0.591,0.169-1.175,0.348-1.771,0.51c-1.622,0.442-3.237,0.848-4.848,1.239c-2,0.484-3.992,0.936-5.973,1.34 c-0.073,0.015-0.147,0.032-0.22,0.047c-0.139,0.028-0.278,0.052-0.417,0.079c-4.723,0.946-9.393,1.671-14,2.166 c-0.594,0.064-1.185,0.113-1.777,0.169c-0.589,0.056-1.18,0.12-1.767,0.168c-1.791,0.148-3.569,0.252-5.341,0.331 c-1.722,0.077-3.437,0.134-5.139,0.146c-1.349,0.009-2.689-0.007-4.025-0.038c-5.701-0.132-11.286-0.634-16.737-1.506 c31.534-51.826,115.757-190.477,155.232-257.69C305.197,89.847,323.304,93.089,340.635,97.268z M216.867,83.871 c11.807-0.117,23.478,0.149,34.986,0.761c-43.802,74.043-125.478,208.397-151.462,251.084c-4.735-2.271-9.317-4.883-13.73-7.845 c-0.915-0.614-1.822-1.243-2.72-1.885c-0.272-0.194-0.537-0.398-0.807-0.594c-0.623-0.454-1.246-0.906-1.86-1.373 c-0.31-0.236-0.613-0.483-0.922-0.722c-0.565-0.439-1.133-0.875-1.689-1.325c-0.34-0.275-0.672-0.56-1.008-0.838 c-0.516-0.427-1.035-0.849-1.544-1.285c-0.355-0.304-0.702-0.619-1.053-0.928c-0.482-0.423-0.967-0.842-1.443-1.274 c-0.348-0.314-0.686-0.64-1.03-0.96c-0.471-0.437-0.944-0.87-1.408-1.315c-0.333-0.32-0.658-0.649-0.987-0.973 c-0.465-0.457-0.934-0.91-1.392-1.375c-0.322-0.327-0.635-0.662-0.954-0.993c-0.456-0.473-0.914-0.943-1.363-1.424 c-0.316-0.337-0.622-0.684-0.934-1.027c-0.442-0.485-0.886-0.965-1.321-1.457c-0.307-0.348-0.607-0.705-0.911-1.057 c-0.428-0.496-0.859-0.989-1.28-1.493c-0.285-0.341-0.562-0.69-0.843-1.034c38.07-63.283,99.442-165.638,130.72-219.596 C200.001,84.313,208.324,83.952,216.867,83.871z M32.442,204c-0.002-12.888,4.224-23.12,9.118-34.968 c0.482-1.167,0.964-2.336,1.446-3.513c15.146-37.053,54.418-63.373,109.36-74.997c-30.432,51.871-76.391,128.591-109.605,183.846 c-0.089-0.202-0.182-0.401-0.27-0.604c-0.202-0.465-0.395-0.934-0.591-1.401c-0.249-0.591-0.5-1.182-0.741-1.777 c-0.192-0.476-0.376-0.958-0.564-1.437c-0.232-0.592-0.465-1.184-0.688-1.781c-0.183-0.488-0.356-0.979-0.534-1.469 c-0.215-0.594-0.432-1.188-0.638-1.787c-0.172-0.498-0.335-1-0.503-1.501c-0.198-0.596-0.398-1.19-0.588-1.79 c-0.162-0.509-0.315-1.022-0.47-1.534c-0.182-0.597-0.365-1.192-0.539-1.793c-0.149-0.517-0.29-1.037-0.434-1.557 c-0.166-0.599-0.333-1.197-0.49-1.798c-0.139-0.529-0.268-1.06-0.4-1.592c-0.148-0.597-0.299-1.193-0.439-1.792 c-0.126-0.54-0.245-1.082-0.365-1.625c-0.132-0.594-0.265-1.189-0.389-1.787c-0.115-0.552-0.219-1.105-0.327-1.658 c-0.115-0.591-0.232-1.183-0.339-1.777c-0.101-0.562-0.193-1.125-0.287-1.689c-0.098-0.589-0.199-1.18-0.289-1.771 c-0.088-0.572-0.166-1.146-0.248-1.72c-0.064-0.456-0.127-0.91-0.187-1.367V204z M471.187,306.521 c-16.785,27.254-47.565,42.313-96.871,47.39c-33.164,3.413-59.121,7.097-91.249,23.483c-9.768,4.983-19.217,10.414-28.356,15.668 c-20.766,11.938-40.381,23.214-63.212,29.429c-57.308,15.601-94.837-3.363-116.231-22.019 c-23.645-20.618-39.044-50.82-42.96-82.073c0.136,0.183,0.275,0.361,0.412,0.544c0.239,0.32,0.481,0.636,0.722,0.955 c0.558,0.737,1.123,1.467,1.693,2.192c0.241,0.306,0.482,0.613,0.724,0.918c0.73,0.915,1.469,1.823,2.219,2.721 c0.067,0.079,0.132,0.162,0.198,0.241c0.819,0.977,1.652,1.939,2.494,2.894c0.238,0.271,0.48,0.537,0.72,0.806 c0.625,0.698,1.255,1.392,1.891,2.077c0.271,0.293,0.542,0.584,0.815,0.873c0.703,0.746,1.413,1.484,2.129,2.215 c0.176,0.18,0.349,0.361,0.526,0.54c0.893,0.902,1.797,1.791,2.711,2.668c0.216,0.207,0.436,0.411,0.652,0.616 c0.71,0.674,1.426,1.341,2.15,2.002c0.293,0.267,0.587,0.533,0.882,0.797c0.711,0.638,1.429,1.269,2.152,1.893 c0.247,0.212,0.49,0.427,0.738,0.638c0.962,0.819,1.934,1.628,2.916,2.422c0.154,0.124,0.31,0.243,0.464,0.368 c0.834,0.668,1.674,1.326,2.521,1.975c0.306,0.235,0.614,0.466,0.923,0.698c0.742,0.559,1.49,1.11,2.242,1.654 c0.293,0.211,0.584,0.424,0.879,0.634c1.029,0.731,2.065,1.453,3.111,2.156c0.039,0.025,0.078,0.051,0.117,0.077 c0.667,0.446,1.348,0.892,2.038,1.338c0.228,0.147,0.459,0.294,0.69,0.441c0.577,0.368,1.162,0.733,1.754,1.099 c0.192,0.119,0.381,0.237,0.576,0.356c0.76,0.464,1.533,0.925,2.319,1.384c0.204,0.119,0.412,0.237,0.617,0.356 c0.628,0.363,1.263,0.723,1.908,1.082c0.242,0.135,0.484,0.27,0.728,0.404c0.834,0.459,1.677,0.914,2.539,1.366 c0.077,0.041,0.157,0.079,0.234,0.12c0.795,0.414,1.604,0.824,2.421,1.231c0.26,0.13,0.523,0.258,0.787,0.388 c0.738,0.362,1.485,0.719,2.241,1.073c0.187,0.088,0.37,0.177,0.558,0.263c0.923,0.427,1.86,0.847,2.809,1.262 c0.239,0.104,0.482,0.207,0.723,0.31c0.764,0.328,1.536,0.653,2.316,0.973c0.264,0.108,0.527,0.216,0.793,0.324 c0.995,0.4,2.001,0.795,3.024,1.18c0.12,0.045,0.243,0.089,0.364,0.134c0.916,0.342,1.845,0.676,2.783,1.003 c0.29,0.101,0.582,0.202,0.875,0.302c0.92,0.314,1.85,0.624,2.793,0.924c0.158,0.05,0.313,0.103,0.471,0.154 c1.09,0.344,2.195,0.675,3.312,0.999c0.274,0.079,0.551,0.156,0.826,0.234c0.905,0.256,1.818,0.504,2.74,0.745 c0.28,0.073,0.559,0.148,0.84,0.219c1.158,0.296,2.327,0.581,3.513,0.852c0.164,0.038,0.332,0.072,0.497,0.11 c1.036,0.233,2.084,0.456,3.143,0.67c0.322,0.065,0.644,0.13,0.967,0.192c1.116,0.217,2.241,0.425,3.38,0.621 c0.117,0.02,0.233,0.043,0.35,0.063c1.253,0.211,2.522,0.404,3.802,0.586c0.315,0.045,0.631,0.087,0.948,0.129 c1.048,0.142,2.104,0.274,3.171,0.395c0.29,0.033,0.579,0.069,0.871,0.1c1.318,0.142,2.648,0.271,3.993,0.38 c0.22,0.018,0.444,0.031,0.664,0.048c1.148,0.089,2.308,0.164,3.476,0.229c0.354,0.02,0.708,0.039,1.065,0.055 c1.347,0.065,2.703,0.117,4.076,0.147c0.038,0.001,0.074,0.003,0.112,0.003c1.146,0.024,2.302,0.038,3.467,0.038 c0.309,0,0.623-0.006,0.933-0.008c0.238-0.001,0.477-0.004,0.717-0.006c1.434-0.015,2.879-0.045,4.342-0.098 c0.155-0.005,0.312-0.014,0.467-0.02c1.477-0.057,2.967-0.134,4.473-0.232c0.081-0.005,0.162-0.008,0.243-0.015 c1.516-0.101,3.049-0.23,4.593-0.374c0.24-0.023,0.48-0.044,0.721-0.068c1.508-0.147,3.03-0.315,4.565-0.506 c0.248-0.03,0.495-0.063,0.744-0.095c1.58-0.202,3.171-0.422,4.78-0.67c0.097-0.015,0.195-0.032,0.292-0.047 c1.587-0.248,3.189-0.52,4.803-0.814c0.182-0.033,0.362-0.064,0.544-0.097c1.607-0.298,3.229-0.623,4.865-0.967 c0.292-0.062,0.583-0.123,0.876-0.186c1.622-0.35,3.256-0.722,4.904-1.12c0.256-0.062,0.513-0.128,0.769-0.19 c1.727-0.424,3.465-0.866,5.221-1.345c26.723-7.274,49.03-20.098,70.602-32.499c9.21-5.294,17.908-10.293,26.974-14.919 c0.855-0.436,1.704-0.861,2.549-1.277c26.194-12.868,47.929-15.887,77.668-18.949c1.685-0.173,3.351-0.363,5.005-0.559 c0.463-0.055,0.92-0.114,1.381-0.171c1.212-0.149,2.414-0.305,3.609-0.468c0.496-0.068,0.993-0.136,1.487-0.205 c1.284-0.182,2.558-0.371,3.821-0.567c0.327-0.051,0.659-0.099,0.985-0.15c1.582-0.252,3.147-0.515,4.696-0.79 c0.322-0.057,0.638-0.118,0.959-0.177c1.224-0.223,2.44-0.451,3.644-0.689c0.468-0.092,0.933-0.186,1.398-0.28 c1.107-0.225,2.207-0.457,3.297-0.694c0.416-0.091,0.834-0.18,1.247-0.272c2.951-0.659,5.838-1.367,8.664-2.121 c0.393-0.106,0.78-0.213,1.171-0.32c1.036-0.283,2.066-0.573,3.085-0.869c0.421-0.122,0.841-0.244,1.259-0.369 c1.099-0.327,2.187-0.663,3.266-1.005c0.272-0.087,0.547-0.169,0.818-0.257c1.345-0.434,2.675-0.88,3.989-1.338 c0.264-0.092,0.522-0.188,0.786-0.281c1.045-0.37,2.079-0.746,3.104-1.131c0.389-0.146,0.774-0.295,1.161-0.443 c0.938-0.36,1.868-0.728,2.79-1.102c0.346-0.14,0.695-0.279,1.039-0.421c2.477-1.025,4.894-2.098,7.25-3.22 c0.328-0.156,0.651-0.316,0.977-0.474c0.862-0.418,1.717-0.843,2.562-1.275c0.351-0.18,0.702-0.358,1.051-0.54 c0.906-0.472,1.802-0.953,2.689-1.441c0.229-0.126,0.462-0.249,0.69-0.375c1.109-0.617,2.201-1.247,3.28-1.889 c0.226-0.135,0.446-0.274,0.671-0.409c0.846-0.511,1.684-1.029,2.513-1.556c0.328-0.209,0.653-0.419,0.979-0.63 c0.753-0.489,1.499-0.985,2.237-1.487c0.294-0.2,0.59-0.398,0.881-0.6c2.005-1.39,3.951-2.827,5.838-4.314 c0.284-0.224,0.563-0.451,0.845-0.678c0.669-0.536,1.33-1.078,1.983-1.628c0.302-0.253,0.603-0.507,0.901-0.763 c0.693-0.594,1.376-1.197,2.051-1.805c0.211-0.19,0.427-0.377,0.636-0.569c0.808-0.739,1.604-1.485,2.387-2.244v10.713 l0.014,0.652C481.048,284.898,477.875,295.659,471.187,306.521z"/> </g> </g> </g>
</svg>