<!DOCTYPE svg PUBLIC "-//W3C//DTD SVG 1.1//EN" "http://www.w3.org/Graphics/SVG/1.1/DTD/svg11.dtd">
<!-- Uploaded to: SVG Repo, www.svgrepo.com, Transformed by: SVG Repo Mixer Tools -->
<svg height="800px" width="800px" version="1.1" id="_x32_" xmlns="http://www.w3.org/2000/svg" xmlns:xlink="http://www.w3.org/1999/xlink" viewBox="0 0 512 512" xml:space="preserve" fill="#000000">
<g id="SVGRepo_bgCarrier" stroke-width="0"/>
<g id="SVGRepo_tracerCarrier" stroke-linecap="round" stroke-linejoin="round"/>
<g id="SVGRepo_iconCarrier"> <style type="text/css"> .st0{fill:#ffffff;} </style> <g> <path class="st0" d="M505.258,216.568c-3.575-4.308-8.21-8.094-13.848-11.638c-9.91-6.139-22.784-11.582-38.375-16.405 c-8.298-2.601-17.422-4.962-27.187-7.185c-38.332-42.03-92.749-68.316-153.036-68.367c-56.538,0.05-107.977,23.22-145.756,60.752 c-17.742,2.652-34.161,5.863-48.838,9.452c-22.915,5.674-41.63,12.388-55.158,20.292c-6.728,3.923-12.278,8.18-16.362,13.099 C2.66,221.385,0,227.255,0,233.54c0,6.335,2.66,12.155,6.699,17.023c0.189,0.225,0.436,0.458,0.64,0.697 c22.914,45.4,78.406,96.774,113.846,116.252c40.148,22.057,77.448,31.516,134.8,31.516c57.381,0,94.667-9.459,134.815-31.516 c35.455-19.478,90.99-70.902,113.876-116.325c0.058-0.072,0.145-0.138,0.218-0.21c0.131-0.131,0.218-0.276,0.363-0.414 c4.068-4.868,6.742-10.688,6.742-17.023C512,227.255,509.326,221.385,505.258,216.568z M272.812,127.154 c48.91,0,93.708,18.541,128.145,49.222c3.662,3.255,7.193,6.618,10.622,10.157c2.427,2.506,4.781,5.064,7.062,7.708 c0.422,0.429,0.785,0.858,1.148,1.279c-2.383-0.901-4.766-1.744-7.193-2.557c-9.488-3.204-19.253-5.856-29.206-7.796 c-29.57-23.968-66.942-38.295-107.511-38.295c-27.463,0-53.414,6.524-76.532,18.258h-0.044c-2.514-0.11-4.984-0.153-7.512-0.153 c-12.612,0-24.992,1.039-37.038,2.986C187.663,142.338,228.508,127.154,272.812,127.154z M352.584,181.193 c-4.635-0.284-9.358-0.421-14.08-0.421c-5.507,0-10.956,0.189-16.376,0.61c-11.45,0.763-22.697,2.419-33.653,4.875h-0.043 c-5.493-2.558-11.087-4.875-16.826-6.953c-13.47-5.064-27.594-8.791-42.125-11.203c14.662-4.592,30.254-7.04,46.397-7.04 C303.704,161.061,329.801,168.377,352.584,181.193z M17.146,241.335c-2.557-3.168-3.385-5.623-3.385-7.795 c0-2.172,0.828-4.636,3.385-7.752c2.252-2.747,5.826-5.726,10.593-8.704c8.355-5.253,20.357-10.404,35.178-14.989 c2.005-0.617,4.112-1.235,6.234-1.845c-18.759,11.726-35.861,26.002-50.77,42.458C17.931,242.236,17.524,241.764,17.146,241.335z M52.049,261.286c-8.806-3.16-16.288-6.517-22.202-9.968c-0.088-0.043-0.218-0.152-0.32-0.189c1.337-1.424,2.659-2.848,4.04-4.257 c20.909-21.564,45.902-38.869,73.684-50.552c2.107-0.894,4.257-1.787,6.408-2.586c2.165-0.858,4.316-1.664,6.51-2.42 c4.316-1.511,8.675-2.877,13.121-4.112c0.043,0,0.13-0.044,0.188-0.044c23.962-3.357,50.566-5.776,78.858-6.996 c18.744,1.743,36.805,5.899,53.908,12.191c-11.915,3.924-23.467,8.806-34.525,14.611h-0.043 c-12.932-2.74-26.228-4.156-39.887-4.156c-8.166,0-16.186,0.516-24.062,1.511c-7.934,0.937-15.737,2.419-23.337,4.352 c-13.31,3.306-26.097,7.984-38.2,13.942c-7.832,3.785-15.402,8.138-22.639,12.911C72.218,243.035,61.668,251.645,52.049,261.286z M81.43,270.135c-5.042-1.235-9.808-2.557-14.342-3.88c2.151-2.034,4.345-3.974,6.597-5.863 c6.51-5.485,13.426-10.541,20.634-15.082v-0.05c11.32-7.092,23.38-13.048,36.08-17.59c7.018-2.55,14.21-4.628,21.549-6.284h0.043 c12.845-2.884,26.141-4.403,39.799-4.403c6.974,0,13.848,0.385,20.634,1.191c-10.447,6.75-20.401,14.371-29.715,22.741 c-32.738,1.794-62.902,13.513-87.75,32.286C90.279,272.212,85.789,271.217,81.43,270.135z M114.444,276.935 c15.678-9.787,33.246-16.638,51.946-19.9c-7.149,7.701-13.804,15.933-19.893,24.586 C135.295,280.248,124.571,278.693,114.444,276.935z M376.749,280.154c-8.398,1.184-17.103,2.223-26.097,3.116 c-5.406,0.567-10.912,1.098-16.507,1.512c-9.677,0.813-19.573,1.474-29.758,1.947c-6.641,0.326-13.382,0.61-20.212,0.799 c-4.81,0.145-9.634,0.233-14.53,0.283c2.979-1.606,6.001-3.117,9.067-4.439c4.955-2.274,10.084-4.214,15.359-5.863 c8.994-2.884,18.352-4.918,27.972-5.964c5.405-0.611,10.912-0.945,16.462-0.945h1.831c11.232,0.138,22.189,1.562,32.738,4.119 c4.578,1.141,9.125,2.448,13.528,4.018C383.389,279.216,380.091,279.674,376.749,280.154z M411.913,274.24 c-9.721-5.006-19.994-9.075-30.674-12.01c-6.888-1.933-13.95-3.4-21.186-4.345c-7.062-0.995-14.268-1.467-21.549-1.467 c-3.894,0-7.745,0.145-11.552,0.429c-6.234,0.414-12.424,1.228-18.483,2.404c-9.72,1.852-19.107,4.592-28.146,8.094 c-5.275,2.078-10.462,4.389-15.446,7.033c-7.57,3.887-14.821,8.384-21.651,13.434c-11.682-0.138-23.191-0.472-34.423-1.039 c9.169-9.125,19.152-17.204,29.933-24.208c5.042-3.356,10.273-6.379,15.635-9.168c9.125-4.781,18.658-8.754,28.524-11.915 c0,0,0,0,0.044,0c6.089-1.991,12.278-3.64,18.614-4.919c10.869-2.267,22.101-3.545,33.551-3.734c1.104-0.051,2.252-0.051,3.4-0.051 c6.146,0,12.191,0.284,18.149,0.908c22.057,2.165,43.01,8.362,62.176,17.771c6.931,3.4,13.571,7.243,19.994,11.443 c1.744,1.177,3.473,2.361,5.217,3.589C434.378,269.278,423.595,271.878,411.913,274.24z M460.372,261.148 c-1.25-0.996-2.528-1.991-3.807-2.928c-8.66-6.532-17.844-12.344-27.507-17.364v-0.044c-7.206-3.727-14.675-7.083-22.333-9.924 v-0.043c-20.852-7.76-43.331-12.06-66.71-12.25h-1.512c-6.829,0-13.572,0.334-20.226,1.032c-11.595,1.191-22.915,3.414-33.87,6.574 c-6.38,1.853-12.613,3.982-18.716,6.43c-10.04,4.069-19.659,8.893-28.829,14.472c-5.463,3.313-10.738,6.859-15.823,10.644 c-11.102,8.268-21.317,17.633-30.486,27.986c-9.634-0.617-18.991-1.424-28.102-2.317c5.493-7.287,11.45-14.233,17.829-20.758 c2.572-2.651,5.231-5.238,7.934-7.802c5.129-4.817,10.548-9.416,16.128-13.753c9.27-7.192,19.079-13.623,29.352-19.239 c6.146-3.415,12.51-6.481,19.02-9.271c11.014-4.729,22.421-8.558,34.248-11.435c7.208-1.802,14.589-3.182,22.058-4.214 c9.634-1.329,19.485-1.991,29.482-1.991c13.252,0,26.228,1.184,38.826,3.459l0.058,0.043c9.168,1.649,18.105,3.873,26.867,6.663 c11.276,3.552,22.145,8.035,32.548,13.288c8.21,4.156,16.129,8.791,23.7,13.899v0.043c8.166,5.449,15.954,11.443,23.336,17.924 C477.795,254.006,469.861,257.696,460.372,261.148z M494.796,241.335c-14.661-13.237-30.979-24.68-48.546-33.899 c-1.744-2.645-3.531-5.195-5.406-7.752c17.378,4.832,31.487,10.353,41.31,16.129c5.812,3.393,10.128,6.851,12.642,9.975 c2.615,3.116,3.443,5.58,3.443,7.752C498.239,235.712,497.411,238.167,494.796,241.335z"/> </g> </g>
</svg>